<svg width="364" height="364" xmlns="http://www.w3.org/2000/svg">
    <g>
    </g>
    <g>
        <rect id="svg_5" height="263" width="276" y="48.5" x="46" stroke-width="null" fill="#ffffff"/>
        <g id="svg_1">
            <path id="svg_2" fill-rule="evenodd" clip-rule="evenodd" fill="#c536a4" d="m244.424,83.438l-124.847,0c-19.925,0 -36.139,16.213 -36.139,36.139l0,124.846c0,19.929 16.214,36.143 36.139,36.143l124.847,0c19.928,0 36.142,-16.214 36.142,-36.143l0,-124.846c0,-19.925 -16.214,-36.139 -36.142,-36.139zm-62.426,163.456c-35.779,0 -64.892,-29.113 -64.892,-64.896c0,-35.779 29.113,-64.892 64.892,-64.892c35.783,0 64.896,29.113 64.896,64.892c0,35.783 -29.113,64.896 -64.896,64.896zm66.984,-116.369c-8.471,0 -15.359,-6.888 -15.359,-15.354c0,-8.467 6.888,-15.355 15.359,-15.355c8.466,0 15.354,6.888 15.354,15.355c0,8.467 -6.888,15.354 -15.354,15.354z"/>
            <path id="svg_3" fill-rule="evenodd" clip-rule="evenodd" fill="#c536a4" d="m181.998,144.531c-20.655,0 -37.475,16.812 -37.475,37.467c0,20.663 16.82,37.479 37.475,37.479c20.663,0 37.471,-16.816 37.471,-37.479c0,-20.655 -16.808,-37.467 -37.471,-37.467z"/>
            <path id="svg_4" fill-rule="evenodd" clip-rule="evenodd" fill="#c536a4" d="m0,0l0,364l364,0l0,-364l-364,0zm307.984,244.423c0,35.053 -28.508,63.561 -63.56,63.561l-124.847,0c-35.049,0 -63.561,-28.508 -63.561,-63.561l0,-124.846c0,-35.049 28.512,-63.561 63.561,-63.561l124.847,0c35.052,0 63.56,28.512 63.56,63.561l0,124.846z"/>
        </g>
    </g>
</svg>
